{"title":"Formula.1.2015x06.Monaco.Teds.Qualifying.Notebook.SkyF1HD.SD","uid":11962308,"size":455883339,"categoryP":"video","categoryS":"hd___tv_shows","magnet":"?xt=urn:btih:0413a827840567c88761a225b010c16d9824baea&amp;dn=Formula.1.2015x06.Monaco.Teds.Qualifying.Notebook.SkyF1HD.SD&amp;tr=udp%3A%2F%2Ftracker.openbittorrent.com%3A80&amp;tr=udp%3A%2F%2Fopen.demonii.com%3A1337&amp;tr=udp%3A%2F%2Ftracker.coppersurfer.tk%3A6969&amp;tr=udp%3A%2F%2Fexodus.desync.com%3A6969","seeders":1,"leechers":0,"uploader":"vickey1992","files":1,"time":1432584794,"description":"Sky Sports' F1 supremo Ted Kravitz analyses the key events from the 2015 Monaco Grand Prix at Circuit de Monaco in Monte Carlo.\n\nVideo\nID : 1\nFormat : AVC\nFormat/Info : Advanced Video Codec\nFormat profile : High@L4\nFormat settings, CABAC : Yes\nFormat settings, ReFrames : 4 frames\nCodec ID : avc1\nCodec ID/Info : Advanced Video Coding\nDuration : 29mn 18s\nBit rate : 4 869 Kbps\nWidth : 1 280 pixels\nHeight : 720 pixels\nDisplay aspect ratio : 16:9\nFrame rate mode : Constant\nFrame rate : 50.000 fps\nColor space : YUV\nChroma subsampling : 4:2:0\nBit depth : 8 bits\nScan type : Progressive\nBits/(Pixel*Frame) : 0.106\nStream size : 1 021 MiB (88%)\nWriting library : x264 core 142 r2479 dd79a61\nEncoding settings : cabac=1 / ref=2 / deblock=1:0:0 / analyse=0x3:0x113 / me=hex / subme=6 / psy=1 / psy_rd=1.00:0.00 / mixed_ref=1 / me_range=16 / chroma_me=1 / trellis=1 / 8x8dct=1 / cqm=0 / deadzone=21,11 / fast_pskip=1 / chroma_qp_offset=-2 / threads=24 / lookahead_threads=4 / sliced_threads=0 / nr=0 / decimate=1 / interlaced=0 / bluray_compat=0 / constrained_intra=0 / bframes=3 / b_pyramid=2 / b_adapt=1 / b_bias=0 / direct=1 / weightb=1 / open_gop=0 / weightp=1 / keyint=500 / keyint_min=50 / scenecut=40 / intra_refresh=0 / rc_lookahead=30 / rc=crf / mbtree=1 / crf=20.0 / qcomp=0.60 / qpmin=0 / qpmax=69 / qpstep=4 / vbv_maxrate=25000 / vbv_bufsize=31250 / crf_max=0.0 / nal_hrd=none / filler=0 / ip_ratio=1.40 / aq=1:1.00\nColor range : Limited\nColor primaries : BT.709\nTransfer characteristics : BT.709\nMatrix coefficients : BT.709\n\nAudio #1\nID : 2\nFormat : AAC\nFormat/Info : Advanced Audio Codec\nFormat profile : LC\nCodec ID : 40\nDuration : 29mn 18s\nBit rate mode : Variable\nBit rate : 320 Kbps\nChannel(s) : 2 channels\nChannel positions : Front: L R\nSampling rate : 48.0 KHz\nCompression mode : Lossy\nStream size : 67.1 MiB (6%)\nTitle : AAC / AAC\n\nAudio #2\nID : 3\nFormat : AC-3\nFormat/Info : Audio Coding 3\nMode extension : CM (complete main)\nFormat settings, Endianness : Big\nCodec ID : ac-3\nDuration : 29mn 18s\nBit rate mode : Constant\nBit rate : 320 Kbps\nChannel(s) : 2 channels\nChannel positions : Front: L R\nSampling rate : 48.0 KHz\nBit depth : 16 bits\nCompression mode : Lossy\nStream size : 67.1 MiB (6%)\nTitle : AC3 / AC3","torrent":{"xt":"urn:btih:0413a827840567c88761a225b010c16d9824baea","amp;dn":"Formula.1.2015x06.Monaco.Teds.Qualifying.Notebook.SkyF1HD.SD","amp;tr":["udp%3A%2F%2Ftracker.openbittorrent.com%3A80","udp%3A%2F%2Fopen.demonii.com%3A1337","udp%3A%2F%2Ftracker.coppersurfer.tk%3A6969","udp%3A%2F%2Fexodus.desync.com%3A6969"],"infoHash":"0413a827840567c88761a225b010c16d9824baea","infoHashBuffer":{"type":"Buffer","data":[4,19,168,39,132,5,103,200,135,97,162,37,176,16,193,109,152,36,186,234]},"announce":[],"urlList":[]}}